<?xml version="1.0" standalone="no"?>
<!DOCTYPE svg PUBLIC "-//W3C//DTD SVG 20010904//EN"
 "http://www.w3.org/TR/2001/REC-SVG-20010904/DTD/svg10.dtd">
<svg version="1.0" xmlns="http://www.w3.org/2000/svg"
 width="300.000000pt" height="300.000000pt" viewBox="0 0 300.000000 300.000000"
 preserveAspectRatio="xMidYMid meet">
<metadata>
Created by potrace 1.10, written by Peter Selinger 2001-2011
</metadata>
<g transform="translate(0.000000,300.000000) scale(0.100000,-0.100000)"
fill="#000000" stroke="none">
<path d="M1526 2793 c-4 -4 -26 -8 -49 -9 -165 -7 -280 -27 -362 -63 -11 -5
-36 -15 -55 -22 -69 -24 -125 -52 -175 -85 -27 -19 -56 -34 -64 -34 -8 0 -12
-3 -8 -6 7 -8 -15 -33 -25 -28 -13 8 -199 -189 -251 -265 -28 -42 -52 -82 -53
-89 -2 -8 -10 -22 -18 -31 -9 -10 -16 -23 -16 -30 0 -6 -10 -31 -22 -54 -12
-23 -22 -44 -23 -47 -1 -7 -26 -82 -32 -100 -8 -21 -10 -28 -18 -80 -4 -24 -9
-48 -12 -53 -6 -9 -14 -74 -14 -104 0 -12 -4 -25 -10 -29 -8 -4 -7 -9 2 -15 8
-5 9 -9 3 -9 -8 0 -9 -11 -5 -32 4 -17 4 -57 1 -89 -3 -32 -2 -67 2 -78 4 -11
3 -23 -2 -26 -5 -3 -2 -18 6 -33 7 -15 14 -38 14 -52 0 -14 11 -65 25 -114 13
-49 21 -94 18 -99 -3 -6 -1 -7 5 -3 7 4 12 1 12 -9 0 -21 38 -113 61 -146 10
-14 16 -29 12 -33 -3 -3 -1 -6 6 -6 8 0 11 -7 7 -15 -3 -9 1 -18 9 -21 8 -3
17 -14 20 -24 3 -10 17 -30 30 -46 14 -16 25 -34 25 -40 0 -11 165 -166 235
-221 33 -26 52 -33 113 -39 l74 -7 -22 43 c-12 24 -25 70 -28 103 -4 54 -7 58
-26 52 -47 -14 -231 -16 -255 -3 -36 19 -125 140 -175 238 -69 132 -95 205
-121 336 -55 269 -19 578 96 824 132 284 380 506 674 607 201 68 475 73 688
12 431 -125 731 -470 834 -959 27 -128 24 -384 -5 -508 -53 -230 -213 -524
-298 -552 -42 -14 -161 -14 -233 0 -29 5 -55 10 -57 10 -2 0 -4 -26 -4 -57 0
-43 -7 -69 -25 -100 l-24 -43 39 0 c93 0 135 18 227 97 48 42 100 80 115 85
33 12 131 153 188 273 46 96 100 247 100 281 0 25 15 33 23 12 3 -7 5 12 5 42
0 30 0 109 1 175 1 135 -19 295 -52 400 -12 39 -21 72 -22 75 -1 12 -52 138
-66 163 -6 10 -20 37 -32 60 -12 23 -28 50 -37 60 -8 10 -14 20 -12 23 1 2 -7
14 -18 27 -11 12 -48 56 -82 97 -34 41 -66 76 -70 78 -23 10 -76 66 -71 75 3
6 1 7 -4 4 -6 -4 -18 2 -28 13 -9 10 -23 16 -31 13 -8 -3 -14 0 -14 6 0 6 -7
11 -15 11 -9 0 -12 6 -8 17 4 10 2 14 -4 10 -14 -9 -73 21 -80 39 -3 8 -10 13
-17 12 -18 -3 -57 13 -51 22 3 4 -1 8 -8 7 -31 -1 -48 4 -42 12 3 6 -4 8 -17
6 -12 -3 -29 1 -37 9 -14 12 -54 25 -88 28 -7 1 -13 4 -13 7 0 3 -16 7 -36 8
-19 1 -43 8 -52 15 -13 11 -14 11 -7 -1 6 -11 5 -12 -6 -5 -15 9 -31 11 -112
13 -29 1 -46 5 -42 11 7 12 2 13 -9 3z m-616 -2171 c17 -63 14 -72 -24 -72
-24 0 -48 11 -85 41 -28 22 -51 44 -51 48 0 9 119 28 137 23 7 -2 17 -20 23
-40z m1331 28 c27 0 49 -4 49 -9 0 -5 -20 -27 -45 -50 -43 -40 -54 -43 -130
-43 -35 0 -37 2 -30 30 7 23 10 43 14 74 2 11 44 15 69 6 13 -4 46 -8 73 -8z"/>
<path d="M1306 2665 c-232 -48 -453 -169 -576 -317 -118 -141 -170 -234 -170
-303 0 -21 -16 -67 -41 -115 -50 -98 -62 -183 -32 -240 18 -34 18 -36 -5 -79
-12 -25 -22 -61 -22 -81 0 -21 -7 -57 -15 -81 -21 -58 -12 -103 32 -176 19
-32 44 -76 55 -98 31 -61 56 -83 109 -96 43 -11 49 -16 49 -40 0 -57 65 -101
167 -114 40 -6 55 -2 93 19 131 75 233 118 350 148 155 39 219 40 374 4 139
-32 201 -58 299 -123 66 -44 77 -48 132 -47 67 0 111 18 165 69 19 18 52 38
72 44 66 21 142 125 108 146 -17 11 -11 24 15 31 36 9 81 66 101 127 16 50 16
60 0 153 -17 98 -34 140 -61 150 -11 5 -10 12 6 37 11 20 19 50 19 78 0 55
-31 159 -61 209 -12 19 -28 61 -35 93 -36 152 -173 332 -338 441 -87 57 -216
114 -324 143 -121 32 -355 41 -466 18z m292 -24 c2 -1 -21 -26 -52 -57 -31
-32 -58 -55 -59 -53 -2 2 -23 26 -47 52 -31 34 -40 51 -31 56 9 6 170 7 189 2z
m252 -62 c41 -23 50 -45 28 -67 -16 -16 -50 -15 -67 1 -11 10 -13 9 -9 -2 2
-8 16 -24 30 -34 l27 -20 31 27 c41 34 90 34 158 0 60 -30 108 -82 124 -137
16 -53 3 -64 -57 -47 -25 7 -50 20 -55 29 -8 14 -9 13 -10 -5 0 -12 6 -26 13
-31 12 -9 84 -27 159 -38 77 -12 176 -118 185 -197 6 -52 -11 -73 -57 -66 -16
3 -30 3 -30 2 0 -1 31 -25 69 -53 78 -58 111 -111 111 -179 0 -32 -7 -49 -28
-73 -27 -30 -33 -32 -109 -36 -89 -4 -108 5 -119 55 -11 52 -38 104 -68 129
-24 20 -38 24 -67 20 -26 -3 -47 1 -69 15 -41 25 -48 17 -16 -15 23 -23 26
-34 26 -95 0 -61 -4 -74 -30 -110 -16 -23 -44 -49 -62 -58 -18 -9 -46 -27 -61
-40 -34 -28 -96 -42 -107 -24 -10 16 6 63 36 112 14 22 20 40 14 43 -6 4 -18
-8 -28 -25 -52 -94 -47 -90 -109 -90 -81 0 -100 -16 -32 -25 74 -10 89 -25 90
-94 l1 -56 12 39 c13 42 15 43 86 75 172 77 216 127 212 243 -3 65 -2 69 24
80 35 16 71 -4 101 -57 35 -62 31 -89 -21 -125 -52 -35 -55 -36 -72 -12 -7 9
-13 13 -13 7 -1 -5 8 -21 18 -34 l19 -25 33 28 c28 24 38 27 73 21 23 -3 80
-5 128 -5 75 1 89 -1 107 -19 12 -12 24 -20 28 -20 8 2 13 -6 37 -59 15 -32
14 -33 -7 -30 -14 2 -21 -2 -19 -11 5 -24 -18 -42 -40 -30 -12 6 -39 8 -63 4
-33 -4 -52 -1 -81 14 -34 18 -40 19 -72 5 -50 -21 -53 -27 -10 -19 87 16 115
-22 56 -77 -28 -26 -37 -29 -67 -23 -20 4 -66 7 -103 6 -41 -1 -68 3 -68 9 0
6 25 47 56 91 30 45 53 83 51 85 -6 6 -77 -81 -103 -125 -18 -32 -75 -81 -94
-81 -3 0 -15 6 -25 14 -18 13 -18 15 2 70 26 71 19 73 -12 2 -16 -36 -32 -57
-47 -62 -12 -4 -45 -22 -71 -40 -67 -46 -118 -47 -163 -3 l-32 31 5 -39 c5
-35 2 -42 -27 -67 -64 -53 -100 -17 -100 99 0 76 4 86 37 104 36 19 75 13 106
-16 l29 -28 -15 31 c-19 36 -34 44 -87 44 -54 0 -70 20 -70 88 0 82 17 102 85
102 30 0 57 5 60 10 3 6 30 10 60 10 46 0 58 4 84 31 17 17 31 37 31 44 0 18
109 145 156 180 l36 28 44 -22 c25 -11 59 -21 77 -21 70 0 146 -53 219 -152
17 -23 18 -23 33 -4 16 21 20 40 7 32 -5 -3 -36 21 -69 53 -60 59 -143 101
-198 101 -13 0 -41 14 -61 32 -33 30 -35 33 -18 45 16 12 14 13 -19 13 -23 0
-37 5 -37 13 0 18 -59 139 -78 161 -30 32 -84 53 -124 48 -37 -4 -38 -4 -38
29 0 19 5 41 10 49 8 12 16 8 44 -25 46 -54 55 -40 14 21 -36 54 -97 93 -149
97 -38 2 -52 -16 -17 -21 43 -7 68 -41 68 -93 0 -45 -3 -51 -45 -86 -44 -36
-45 -39 -45 -94 0 -64 -9 -76 -60 -81 l-35 -4 37 -17 c45 -20 59 -57 37 -96
-16 -28 -73 -41 -92 -22 -6 6 -10 63 -8 148 2 155 3 158 90 214 41 27 43 29
19 29 -15 0 -40 -12 -57 -26 -50 -42 -59 -30 -54 77 5 119 30 171 98 207 66
35 174 31 245 -9z m-469 8 c64 -43 79 -78 79 -183 0 -51 -3 -99 -6 -108 -8
-20 -28 -20 -44 0 -8 8 -22 20 -32 25 -36 19 -19 -18 21 -45 21 -15 43 -38 50
-52 18 -40 15 -994 -3 -1039 -19 -44 -32 -50 -168 -79 -109 -23 -174 -49 -243
-95 -40 -28 -52 -26 -70 9 -40 77 4 183 63 151 10 -5 45 -7 78 -4 72 7 107 22
52 23 -21 0 -59 7 -85 16 -39 13 -54 14 -87 4 -39 -12 -41 -11 -69 22 -75 88
-81 116 -42 208 14 33 25 70 25 82 0 42 42 193 59 209 23 23 127 42 153 28 12
-6 18 -7 14 -1 -3 5 0 15 8 21 9 8 12 31 8 83 l-4 73 50 76 c34 51 59 80 81
89 63 26 102 100 67 129 -11 9 -13 5 -12 -25 1 -40 -25 -67 -76 -79 -22 -6
-34 1 -71 34 -24 23 -51 41 -59 41 -37 0 -104 -96 -115 -165 -8 -50 -21 -57
-81 -44 -47 11 -54 10 -114 -18 -45 -21 -77 -45 -104 -78 -21 -26 -49 -51 -62
-56 -19 -7 -21 -12 -12 -29 6 -11 14 -20 18 -20 4 0 25 23 45 50 42 57 102
103 153 120 26 9 47 9 85 0 44 -11 52 -10 69 5 10 9 21 34 25 54 7 44 60 140
80 147 19 8 95 -53 95 -75 0 -10 -13 -36 -29 -58 -47 -65 -61 -99 -61 -148 0
-64 -28 -91 -105 -100 -32 -4 -64 -4 -70 1 -60 45 -97 65 -109 61 -8 -3 -24
-33 -37 -67 -32 -88 -62 -110 -150 -110 -86 0 -123 17 -139 64 -23 72 22 154
121 218 27 17 49 33 49 36 0 2 -13 2 -29 -1 -20 -4 -33 -1 -42 9 -20 24 -15
104 9 151 23 44 47 62 97 73 25 5 31 12 36 43 9 56 35 80 81 73 34 -6 38 -4
38 14 0 44 60 120 119 150 38 19 112 15 160 -9 51 -26 56 -39 42 -95 -9 -37
-8 -51 8 -87 10 -24 21 -53 25 -63 5 -15 9 -17 18 -8 9 9 6 25 -11 67 -18 43
-21 64 -15 93 14 68 -1 102 -43 102 -28 0 -47 37 -29 59 41 52 187 68 247 28z
m861 -256 c9 -11 25 -32 35 -47 l17 -27 -26 6 c-71 18 -78 24 -78 67 0 36 2
40 18 31 9 -5 25 -19 34 -30z m-393 -86 c35 -17 88 -87 96 -125 3 -15 15 -36
26 -46 29 -26 23 -57 -19 -104 -42 -48 -68 -48 -59 -1 7 33 -7 62 -17 36 -3
-9 -6 -32 -6 -51 0 -91 -63 -126 -87 -49 l-13 40 5 -40 c19 -139 19 -132 -8
-159 -21 -21 -31 -24 -62 -19 -21 3 -46 1 -60 -7 -29 -16 -124 -7 -137 12 -11
19 -10 198 2 198 6 0 10 -4 10 -9 0 -17 40 -23 69 -11 38 15 65 64 58 106 l-6
34 38 -20 c96 -48 197 39 122 106 -17 15 -28 31 -25 35 9 15 65 -21 122 -77
29 -30 59 -54 65 -54 7 1 5 6 -4 13 -9 7 -27 34 -39 60 -23 50 -74 97 -104 97
-27 0 -94 -38 -106 -60 -10 -19 -8 -20 34 -20 36 0 48 -4 57 -22 10 -19 8 -25
-15 -45 -34 -29 -65 -29 -100 -2 -56 44 -15 138 79 180 49 23 49 23 84 4z
m584 -285 c6 -23 -1 -25 -25 -6 -18 13 -14 26 8 26 6 0 14 -9 17 -20z m-1547
-174 c39 -39 41 -53 15 -129 -11 -30 -23 -82 -26 -114 -9 -69 -39 -153 -62
-170 -24 -19 -51 -16 -118 13 -79 33 -115 44 -115 35 0 -9 164 -87 201 -96 28
-7 130 -114 150 -158 18 -39 3 -96 -27 -107 -35 -14 -35 -14 -88 21 -38 26
-52 30 -79 24 -96 -22 -154 -3 -184 60 -20 42 -16 48 25 33 26 -10 37 -9 67 5
45 22 67 21 109 -1 23 -12 46 -17 68 -14 l33 6 -31 6 c-17 4 -44 14 -60 23
-16 9 -45 23 -64 32 -19 8 -66 39 -105 68 -58 44 -74 62 -92 107 -26 64 -29
129 -8 169 19 37 31 41 126 41 77 0 115 -10 131 -34 9 -13 10 -68 2 -90 -8
-22 -52 -20 -114 4 -27 11 -50 15 -50 10 0 -17 62 -49 109 -56 39 -6 47 -4 63
16 25 31 24 109 -2 142 l-19 25 23 22 c13 13 34 49 45 82 12 32 27 59 33 59 5
0 25 -15 44 -34z m1629 -171 c14 -13 25 -30 25 -37 0 -7 -7 -3 -15 9 -9 12
-26 29 -38 38 -12 8 -16 15 -9 15 7 0 24 -11 37 -25z m-57 -161 c29 -8 28 -32
-4 -80 -32 -47 -43 -55 -70 -52 -14 2 -42 -15 -78 -47 -30 -28 -73 -65 -93
-84 -33 -28 -34 -30 -6 -12 38 26 85 27 105 4 20 -22 10 -51 -23 -69 -13 -7
-18 -13 -11 -14 7 0 32 18 56 40 28 26 53 40 70 40 14 0 26 -3 26 -8 0 -20
-68 -86 -105 -102 -23 -10 -54 -29 -69 -44 -50 -46 -111 -69 -168 -64 -28 3
-56 12 -62 19 -19 25 -199 108 -276 127 -76 20 -178 37 -193 34 -25 -7 5 38
51 75 56 46 60 47 80 34 12 -7 11 -14 -3 -41 -9 -17 -15 -34 -12 -36 2 -2 12
14 23 37 14 32 28 46 62 60 23 10 57 29 75 42 46 34 65 39 104 26 25 -8 42 -8
66 1 18 6 70 13 117 15 116 5 138 -16 79 -74 -19 -19 -41 -31 -57 -31 -16 0
-39 -13 -59 -32 -24 -24 -37 -30 -47 -23 -68 51 -67 50 -79 30 -5 -10 -22 -30
-36 -43 l-26 -25 25 8 c86 26 117 10 127 -63 4 -30 9 -39 20 -35 10 4 12 14 7
37 -4 17 -7 40 -6 50 2 30 48 71 96 84 37 10 49 19 71 56 14 24 38 52 53 61
15 10 38 31 51 47 13 17 38 36 55 44 36 16 35 15 64 8z m-1955 -72 c13 -26 34
-50 52 -59 49 -25 95 -63 95 -79 0 -22 -45 -35 -77 -23 -34 13 -90 64 -109
101 -17 33 -18 82 -2 111 9 17 12 19 16 7 2 -8 14 -35 25 -58z m2053 53 c4 -8
-1 -30 -10 -49 -9 -19 -16 -39 -16 -45 0 -17 -23 -54 -44 -71 -10 -8 -28 -24
-40 -36 -12 -12 -42 -30 -68 -42 -44 -19 -47 -19 -62 -3 -22 24 -20 41 7 75
16 19 36 31 62 35 40 6 75 42 117 120 18 33 45 41 54 16z m-1023 -207 c12 -7
24 -14 26 -15 2 -1 -4 -14 -13 -28 -10 -16 -26 -25 -42 -25 -24 0 -25 2 -19
33 12 52 14 54 48 35z m-728 -164 c29 -19 48 -25 81 -23 40 3 45 0 68 -34 l25
-37 -29 -15 c-64 -33 -196 -7 -234 46 -21 31 -20 65 2 78 27 16 46 13 87 -15z"/>
<path d="M1721 2568 c5 -18 9 -44 9 -57 0 -17 17 -41 54 -76 36 -35 58 -66 67
-93 15 -53 44 -80 67 -66 27 18 51 57 61 102 12 57 -2 53 -27 -8 -25 -60 -48
-73 -74 -41 -10 13 -18 31 -18 41 0 9 -22 43 -50 74 -27 31 -50 65 -51 74 -2
51 -15 82 -33 82 -12 0 -13 -6 -5 -32z"/>
<path d="M2040 2196 c0 -22 23 -46 46 -46 34 0 73 -21 109 -60 41 -44 61 -53
85 -40 24 13 27 62 5 80 -13 11 -14 10 -9 -5 5 -12 1 -22 -11 -31 -24 -18 -64
3 -101 51 -22 29 -33 35 -63 35 -20 0 -42 5 -49 12 -7 7 -12 9 -12 4z"/>
<path d="M1953 1908 c-29 -32 -120 -149 -137 -176 -7 -11 -4 -12 13 -2 31 16
177 210 159 210 -2 0 -18 -15 -35 -32z"/>
<path d="M1047 2393 c-8 -16 -17 -40 -21 -55 -8 -36 -45 -46 -81 -22 l-28 18
15 -30 c35 -68 -37 -123 -99 -74 -32 25 -52 15 -24 -11 25 -24 26 -31 6 -69
-14 -27 -20 -30 -65 -30 -45 0 -71 -13 -55 -28 3 -3 30 -7 60 -8 45 -1 55 1
60 17 4 11 23 31 43 46 98 73 186 164 204 211 21 54 22 62 8 62 -5 0 -16 -12
-23 -27z"/>
<path d="M1294 1961 c-25 -15 -32 -27 -37 -66 -16 -116 -8 -140 61 -180 40
-24 67 -74 58 -108 -11 -44 -41 -63 -131 -80 -118 -24 -132 -22 -165 16 -15
17 -40 46 -55 62 l-26 30 23 -44 c36 -67 81 -111 114 -111 36 0 170 27 207 42
35 13 59 60 59 109 -1 48 -16 71 -68 104 -46 29 -54 46 -54 117 0 41 5 54 36
88 39 43 29 52 -22 21z"/>
<path d="M997 1414 c17 -49 10 -63 -29 -64 -9 0 -20 -5 -23 -11 -5 -7 14 -8
61 -4 64 6 73 4 124 -23 126 -67 234 -122 239 -122 28 1 -222 155 -286 177
-34 12 -48 24 -64 54 -27 54 -41 49 -22 -7z"/>
<path d="M699 873 c28 -53 134 -125 203 -138 35 -7 36 -6 42 30 4 20 6 38 4
39 -2 1 -32 8 -67 15 -52 10 -104 29 -184 69 -5 2 -4 -4 2 -15z"/>
<path d="M2275 876 c-33 -23 -164 -66 -201 -66 -38 0 -39 -3 -23 -49 14 -39
35 -40 114 -2 66 31 170 131 137 131 -4 0 -16 -6 -27 -14z"/>
<path d="M1010 814 c0 -4 7 -12 16 -18 16 -12 20 -55 16 -188 -2 -44 -6 -58
-17 -58 -8 0 -15 -4 -15 -10 0 -13 184 -13 232 0 39 11 78 51 78 79 0 28 -24
52 -60 61 l-35 7 32 13 c62 23 47 90 -24 109 -41 12 -223 15 -223 5z m184 -36
c33 -46 9 -88 -50 -88 -32 0 -34 2 -34 36 0 19 5 44 10 55 14 26 55 24 74 -3z
m19 -126 c40 -35 9 -102 -48 -102 -44 0 -55 16 -55 77 l0 53 43 -6 c23 -4 50
-14 60 -22z"/>
<path d="M1398 803 c21 -14 22 -22 22 -131 0 -98 -3 -117 -17 -128 -16 -11 -7
-13 57 -13 71 0 74 1 53 16 -19 12 -23 25 -23 64 l0 49 47 0 c60 0 131 33 139
66 9 35 -19 71 -63 83 -21 6 -83 11 -138 10 -94 0 -99 -1 -77 -16z m172 -23
c40 -40 12 -100 -46 -100 l-34 0 0 48 c0 71 37 95 80 52z"/>
<path d="M1786 799 c-57 -45 -24 -102 87 -149 56 -24 62 -30 62 -56 0 -21 -7
-32 -27 -42 -35 -17 -93 6 -110 42 -18 41 -36 32 -36 -16 l1 -43 87 -3 c82 -3
89 -1 119 23 25 22 31 34 31 66 0 47 -15 62 -101 99 -73 31 -94 54 -65 75 27
20 76 8 107 -26 30 -35 36 -32 31 16 l-4 35 -78 0 c-63 0 -82 -4 -104 -21z"/>
<path d="M860 501 c0 -18 59 -54 190 -117 128 -61 419 -124 577 -124 86 0 77
9 -11 11 -83 2 -74 16 14 23 155 12 378 86 488 160 83 56 56 58 -55 2 -364
-183 -762 -181 -1110 4 -51 28 -93 46 -93 41z"/>
<path d="M250 335 c0 -8 7 -15 16 -15 9 0 14 -7 12 -17 -5 -26 -27 -27 -37 -1
-6 12 -10 18 -10 12 -1 -6 -12 -23 -27 -39 -14 -15 -23 -29 -21 -31 8 -9 37 9
37 22 0 20 5 18 35 -11 29 -30 31 -35 10 -35 -8 0 -18 -12 -21 -26 -6 -24 -8
-25 -17 -8 -10 20 -36 44 -47 44 -15 0 -5 -30 9 -31 12 0 12 -2 3 -6 -10 -4
-5 -11 14 -24 l28 -18 17 29 c10 16 32 36 48 45 33 16 61 55 40 55 -6 0 -9 7
-5 15 3 9 0 15 -9 15 -8 0 -19 9 -25 20 -12 23 -50 27 -50 5z m70 -71 c0 -22
-3 -24 -22 -18 -32 9 -33 12 -13 34 21 24 35 18 35 -16z"/>
</g>
</svg>
